<svg width="25" height="25" viewBox="0 0 25 25" fill="none" xmlns="http://www.w3.org/2000/svg">
<path opacity="0.3" d="M19.0555 20.5C20.0373 20.5 20.8333 19.7837 20.8333 18.9V18C17.3333 18.5 17.3333 18 14.8333 16.5C10.2315 13.7389 6.33325 21 4.83325 7.70009V18.9C4.83325 19.7837 5.62919 20.5 6.61103 20.5H19.0555Z" fill="#4195D5"/>
<path d="M20.8333 14V7.70009C20.8333 6.81644 20.0373 6.1001 19.0555 6.1001H6.61103C5.62919 6.1001 4.83325 6.81644 4.83325 7.70009V18.9C4.83325 19.7837 5.62919 20.5 6.61103 20.5H19.0555C20.0373 20.5 20.8333 19.7837 20.8333 18.9V18" stroke="#133F5D" stroke-linecap="round" stroke-linejoin="round"/>
<path d="M16.3882 4.5V7.69998" stroke="#133F5D" stroke-linecap="round" stroke-linejoin="round"/>
<path d="M9.2771 4.5V7.69998" stroke="#133F5D" stroke-linecap="round" stroke-linejoin="round"/>
<path d="M4.83325 10.9001H7.33325M20.8333 10.9001H10.8333" stroke="#133F5D" stroke-linecap="round" stroke-linejoin="round"/>
</svg>
