<svg width="25" height="25" viewBox="0 0 25 25" fill="none" xmlns="http://www.w3.org/2000/svg">
<mask id="mask0_1_50116" style="mask-type:luminance" maskUnits="userSpaceOnUse" x="0" y="0" width="25" height="25">
<path d="M25 0H0V25H25V0Z" fill="white"/>
</mask>
<g mask="url(#mask0_1_50116)">
<mask id="mask1_1_50116" style="mask-type:luminance" maskUnits="userSpaceOnUse" x="0" y="0" width="25" height="25">
<path d="M25 0H0V25H25V0Z" fill="white"/>
</mask>
<g mask="url(#mask1_1_50116)">
<path d="M12.5019 24.5472C19.154 24.5472 24.5467 19.1545 24.5467 12.5023C24.5467 5.85017 19.154 0.45752 12.5019 0.45752C5.84969 0.45752 0.457031 5.85017 0.457031 12.5023C0.457031 19.1545 5.84969 24.5472 12.5019 24.5472Z" stroke="white" stroke-miterlimit="10"/>
</g>
<mask id="mask2_1_50116" style="mask-type:luminance" maskUnits="userSpaceOnUse" x="0" y="0" width="25" height="25">
<path d="M25 0H0V25H25V0Z" fill="white"/>
</mask>
<g mask="url(#mask2_1_50116)">
<path d="M12.5024 10.5811C11.4456 10.5811 10.5811 11.4411 10.5811 12.5024C10.5811 13.5637 11.4411 14.4237 12.5024 14.4237C13.5591 14.4237 14.4237 13.5637 14.4237 12.5024C14.4191 11.4411 13.5591 10.5811 12.5024 10.5811Z" fill="white"/>
</g>
<mask id="mask3_1_50116" style="mask-type:luminance" maskUnits="userSpaceOnUse" x="0" y="0" width="25" height="25">
<path d="M25 0H0V25H25V0Z" fill="white"/>
</mask>
<g mask="url(#mask3_1_50116)">
<path d="M16.9397 6.55542H8.06507C7.06782 6.55542 6.2627 7.36054 6.2627 8.3578V16.6469C6.2627 17.6442 7.07239 18.4493 8.06507 18.4493H16.9397C17.937 18.4493 18.7421 17.6442 18.7421 16.6469V8.3578C18.7421 7.36054 17.937 6.55542 16.9397 6.55542ZM14.6204 14.9452C11.3633 17.2096 7.7906 13.6323 10.0596 10.3798C10.1465 10.2562 10.2563 10.1465 10.3798 10.0595C13.6323 7.7997 17.2096 11.3724 14.9406 14.625C14.8583 14.7485 14.7439 14.8583 14.6204 14.9452ZM16.7522 9.27729C16.3999 9.27729 16.1117 8.98909 16.1117 8.63685C16.1117 8.28461 16.3999 7.99641 16.7522 7.99641C17.1044 7.99641 17.3926 8.28461 17.3926 8.63685C17.3926 8.98909 17.1044 9.27729 16.7522 9.27729Z" fill="white"/>
</g>
</g>
</svg>
