<svg width="15" height="15" viewBox="0 0 15 15" fill="none" xmlns="http://www.w3.org/2000/svg">
<g id="phone-icon 1" clip-path="url(#clip0_1_49933)">
<g id="g8">
<path id="path4" d="M0.687906 3.85321C0.550291 3.16514 0.412676 2.61468 0.412676 1.9266C0.275062 1.10092 0.82552 0.412842 1.65121 0.412842H1.78882H3.99066C4.67873 0.412842 5.3668 0.963301 5.3668 1.65137C5.50442 2.33945 5.64203 3.02752 5.91726 3.71559C6.05488 4.12844 5.91726 4.6789 5.50442 5.09174L4.67873 6.05504C5.64203 7.84403 7.1558 9.3578 8.94479 10.3211L9.90809 9.3578C10.3209 8.94495 10.8714 8.80734 11.4219 9.08257C12.1099 9.3578 12.798 9.49541 13.4861 9.63303C14.1741 9.77064 14.7246 10.3211 14.7246 11.1468V13.3486C14.7246 13.4862 14.7246 13.6239 14.587 13.7615C14.4494 14.3119 13.8989 14.7248 13.2108 14.7248H13.0732C10.8714 14.4495 8.80717 13.6239 6.88057 12.5229C6.46772 12.1101 5.91726 11.8349 5.50442 11.5596C4.4035 10.5963 3.4402 9.49541 2.61451 8.11926C2.20167 7.70642 1.92644 7.15596 1.65121 6.6055" stroke="white" stroke-width="0.5" stroke-miterlimit="10" stroke-linecap="round" stroke-linejoin="round"/>
<path id="path6" opacity="0.3" fill-rule="evenodd" clip-rule="evenodd" d="M14.5875 13.7615C14.4498 14.312 13.8994 14.7248 13.2113 14.7248H13.0737C10.8719 14.4496 8.80764 13.6239 6.88103 12.523C6.46819 12.1101 5.91773 11.8349 5.50488 11.5597C6.05534 11.4221 6.46819 11.4221 6.88103 11.5597C7.84433 11.8349 8.80764 12.1101 9.35809 11.9725C10.5966 11.8349 11.4223 10.734 13.2113 11.6973C13.8994 12.1101 14.4498 12.7982 14.5875 13.7615Z" fill="white"/>
</g>
</g>
<defs>
<clipPath id="clip0_1_49933">
<rect width="15" height="15" fill="white"/>
</clipPath>
</defs>
</svg>
