<svg width="26" height="15" viewBox="0 0 26 15" fill="none" xmlns="http://www.w3.org/2000/svg">
<path d="M24.241 1.43803H7.92158L6.92792 2.36796L5.9428 1.43803H1.48893C1.42465 1.43803 1.361 1.44995 1.30162 1.47318C1.24224 1.49641 1.18819 1.53061 1.14278 1.57353C1.09738 1.61644 1.0614 1.66738 1.03689 1.72343C1.01239 1.77947 0.999862 1.83956 1 1.90019V13.1001C0.999861 13.1607 1.01238 13.2207 1.03689 13.2767C1.06141 13.3326 1.09749 13.3835 1.14291 13.4263C1.18834 13.4691 1.24224 13.503 1.30162 13.5262C1.361 13.5493 1.4247 13.5612 1.48893 13.5611H5.9428L6.92792 12.6311L7.92158 13.5611H24.241C24.3058 13.562 24.3702 13.5509 24.4304 13.5281C24.4905 13.5054 24.5454 13.4714 24.5915 13.4285C24.6377 13.3856 24.6743 13.3345 24.6994 13.2781C24.7244 13.2217 24.7373 13.1613 24.7373 13.1001V1.90019C24.7373 1.83901 24.7244 1.77841 24.6994 1.72196C24.6744 1.66552 24.6377 1.61431 24.5915 1.57133C24.5454 1.52835 24.4905 1.49434 24.4304 1.47147C24.3702 1.44861 24.3059 1.43723 24.241 1.43803Z" stroke="#4198D3" stroke-linecap="round" stroke-linejoin="round"/>
<path d="M6.92964 5.03398C6.83195 5.03379 6.73646 5.00645 6.65534 4.95513C6.57421 4.9038 6.51109 4.83082 6.47385 4.74565C6.43661 4.66049 6.42696 4.56694 6.44614 4.47661C6.46533 4.38628 6.5124 4.3034 6.58155 4.23833C6.6507 4.17326 6.73879 4.12879 6.83463 4.11089C6.93046 4.09299 7.02983 4.10244 7.12006 4.13774C7.2103 4.17304 7.28743 4.23276 7.34168 4.30938C7.39594 4.38599 7.42479 4.47604 7.42479 4.56816C7.42479 4.62944 7.41202 4.69003 7.38712 4.74663C7.36222 4.80323 7.32568 4.85471 7.27968 4.898C7.23367 4.94128 7.17911 4.97547 7.11903 4.99883C7.05895 5.02219 6.99463 5.03412 6.92964 5.03398Z" fill="#4198D3" stroke="#4195D5" stroke-width="0.5"/>
<path d="M6.92964 10.7652C6.83195 10.765 6.73646 10.7374 6.65534 10.6861C6.57421 10.6348 6.51109 10.5618 6.47385 10.4766C6.43661 10.3914 6.42696 10.2979 6.44614 10.2076C6.46533 10.1172 6.5124 10.0344 6.58155 9.96929C6.6507 9.90422 6.73879 9.85975 6.83463 9.84185C6.93046 9.82395 7.02983 9.8334 7.12006 9.8687C7.2103 9.904 7.28743 9.96372 7.34168 10.0403C7.39594 10.1169 7.42479 10.207 7.42479 10.2991C7.42479 10.3604 7.41202 10.421 7.38712 10.4776C7.36222 10.5342 7.32568 10.5857 7.27968 10.629C7.23367 10.6722 7.17911 10.7064 7.11903 10.7298C7.05895 10.7531 6.99463 10.7653 6.92964 10.7652Z" fill="#4198D3" stroke="#4195D5" stroke-width="0.5"/>
<path d="M6.92984 7.90018C6.83185 7.90018 6.73596 7.87268 6.6545 7.82132C6.57303 7.76996 6.50968 7.697 6.47223 7.61161C6.43478 7.52621 6.42495 7.4322 6.44414 7.34159C6.46334 7.25097 6.5107 7.16784 6.58006 7.10257C6.64943 7.0373 6.73765 6.99279 6.83379 6.97489C6.92992 6.95698 7.02953 6.96649 7.12 7.00199C7.21047 7.03749 7.28785 7.09742 7.34214 7.17435C7.39643 7.25128 7.4252 7.34171 7.42499 7.43412C7.4247 7.5578 7.37246 7.67634 7.27961 7.76371C7.18677 7.85107 7.061 7.90018 6.92984 7.90018Z" fill="#4198D3" stroke="#4195D5" stroke-width="0.5"/>
<path opacity="0.3" fill-rule="evenodd" clip-rule="evenodd" d="M20.3045 13.5619H7.92158L6.92792 12.632L5.9428 13.5619H1.48893C1.4247 13.562 1.361 13.5501 1.30162 13.527C1.24224 13.5039 1.18834 13.47 1.14291 13.4271C1.09749 13.3843 1.06141 13.3335 1.03689 13.2775C1.01238 13.2215 0.999861 13.1615 1 13.101V9.65101C1.29375 9.50201 1.61724 9.34594 1.98628 9.17494C3.07376 8.76926 4.23893 8.58177 5.40752 8.62465C6.57612 8.66752 7.72234 8.93984 8.7731 9.42396C10.0708 10.3007 11.4857 11.0118 12.981 11.539C15.1263 12.008 17.329 10.5308 19.9589 13.1388C20.0889 13.2685 20.2046 13.4103 20.3045 13.5619Z" fill="#4198D3"/>
<path d="M16.2291 5.48203C16.2328 5.73718 16.1865 5.99083 16.0924 6.23008C16.0098 6.43623 15.885 6.62528 15.7254 6.78623C15.5762 6.93517 15.3956 7.05298 15.1952 7.13218C14.9934 7.21082 14.7772 7.25115 14.5589 7.25107C14.3322 7.25316 14.1072 7.21282 13.8972 7.13218C13.6965 7.05342 13.5158 6.93556 13.3669 6.78623C13.2092 6.62632 13.0888 6.43673 13.0138 6.23008C12.9255 5.98964 12.8824 5.73645 12.8866 5.48203C12.882 5.22366 12.9251 4.9665 13.0138 4.72202C13.0889 4.5139 13.2092 4.32305 13.3669 4.16123C13.5149 4.01045 13.6958 3.89158 13.8972 3.81309C14.1069 3.73153 14.332 3.69085 14.5589 3.69321C14.7854 3.69163 15.01 3.73229 15.2196 3.81309C15.4215 3.8906 15.6027 4.00961 15.7499 4.16123C15.9062 4.32408 16.0263 4.51463 16.103 4.72202C16.1919 4.96644 16.2345 5.22369 16.2291 5.48203ZM18.8686 3.94224C18.9085 3.89059 18.9577 3.84583 19.014 3.81016C19.0752 3.77634 19.1455 3.7599 19.2164 3.76304H19.8909L14.3765 10.7391C14.3415 10.78 14.2983 10.8141 14.2493 10.8392C14.1961 10.8669 14.136 10.8808 14.0753 10.8792H13.3808L18.8686 3.94224ZM15.4964 5.48203C15.5009 5.29426 15.4759 5.10698 15.4221 4.92612C15.3819 4.78929 15.3131 4.66147 15.2196 4.55015C15.1404 4.45679 15.037 4.38421 14.9194 4.33921C14.6836 4.25392 14.4226 4.25392 14.1868 4.33921C14.07 4.38451 13.9674 4.45706 13.8888 4.55015C13.7975 4.66205 13.7304 4.78979 13.6915 4.92612C13.6405 5.10744 13.6166 5.29449 13.6204 5.48203C13.6168 5.66726 13.6407 5.85213 13.6915 6.0311C13.7299 6.16516 13.7971 6.29031 13.8888 6.39902C13.9688 6.48808 14.0713 6.55703 14.1868 6.59922C14.4234 6.68063 14.6828 6.68063 14.9194 6.59922C15.0354 6.55691 15.1386 6.48801 15.2196 6.39902C15.3135 6.29092 15.3824 6.16568 15.4221 6.0311C15.4756 5.8526 15.5007 5.66749 15.4964 5.48203ZM20.4021 9.20322C20.4066 9.45779 20.3601 9.71073 20.2652 9.94907C20.182 10.1544 20.0575 10.3425 19.8984 10.503C19.7493 10.6519 19.5686 10.7696 19.3681 10.8482C19.1667 10.9281 18.9504 10.9688 18.7319 10.9681C18.505 10.9705 18.2799 10.9298 18.0701 10.8482C17.8692 10.7704 17.6884 10.6525 17.5399 10.503C17.3825 10.3436 17.2622 10.1549 17.1868 9.94907C17.0986 9.70931 17.0559 9.45694 17.0606 9.20322C17.0559 8.94427 17.0986 8.6863 17.1868 8.44102C17.2613 8.23176 17.3816 8.03964 17.5399 7.87705C17.688 7.72644 17.8689 7.60784 18.0701 7.52915C18.4941 7.37031 18.9664 7.37031 19.3904 7.52915C19.5916 7.60789 19.7724 7.72649 19.9206 7.87705C20.0782 8.04018 20.1984 8.23214 20.2738 8.44102C20.3619 8.68566 20.4053 8.94266 20.4021 9.20103V9.20322ZM19.6745 9.20322C19.6786 9.01488 19.654 8.82685 19.6014 8.64512C19.5614 8.50833 19.4921 8.38071 19.3978 8.27012C19.3182 8.1775 19.215 8.10557 19.0977 8.06113C18.8621 7.97459 18.6005 7.97459 18.3649 8.06113C18.2485 8.10562 18.1463 8.17758 18.0679 8.27012C17.9751 8.38086 17.9075 8.50854 17.8696 8.64512C17.8189 8.82716 17.7951 9.01503 17.7987 9.20322C17.7948 9.38781 17.8186 9.57185 17.8696 9.7501C17.9087 9.88353 17.9762 10.008 18.0679 10.1161C18.1472 10.2055 18.2495 10.2743 18.3649 10.316C18.6013 10.3987 18.8613 10.3987 19.0977 10.316C19.2139 10.2741 19.3171 10.2054 19.3978 10.1161C19.491 10.0082 19.5602 9.88373 19.6014 9.7501C19.6545 9.57152 19.6791 9.38643 19.6745 9.20103V9.20322Z" fill="#4198D3"/>
</svg>
