<svg width="25" height="25" viewBox="0 0 25 25" fill="none" xmlns="http://www.w3.org/2000/svg">
<mask id="mask0_1_50057" style="mask-type:luminance" maskUnits="userSpaceOnUse" x="0" y="0" width="25" height="25">
<path d="M25 0H0V25H25V0Z" fill="white"/>
</mask>
<g mask="url(#mask0_1_50057)">
<mask id="mask1_1_50057" style="mask-type:luminance" maskUnits="userSpaceOnUse" x="0" y="0" width="25" height="25">
<path d="M25 0H0V25H25V0Z" fill="white"/>
</mask>
<g mask="url(#mask1_1_50057)">
<path d="M12.5019 24.5472C19.154 24.5472 24.5467 19.1545 24.5467 12.5023C24.5467 5.85017 19.154 0.45752 12.5019 0.45752C5.84969 0.45752 0.457031 5.85017 0.457031 12.5023C0.457031 19.1545 5.84969 24.5472 12.5019 24.5472Z" stroke="white" stroke-miterlimit="10"/>
</g>
<mask id="mask2_1_50057" style="mask-type:luminance" maskUnits="userSpaceOnUse" x="0" y="0" width="25" height="25">
<path d="M25 0H0V25H25V0Z" fill="white"/>
</mask>
<g mask="url(#mask2_1_50057)">
<path d="M18.7235 9.35494C18.5725 8.79226 18.1333 8.34853 17.5752 8.19757C16.5643 7.9231 12.502 7.9231 12.502 7.9231C12.502 7.9231 8.43984 7.9231 7.42886 8.19757C6.87076 8.34853 6.4316 8.79226 6.28064 9.35494C6.01074 10.3751 6.01074 12.5022 6.01074 12.5022C6.01074 12.5022 6.01074 14.6294 6.28064 15.6495C6.4316 16.2122 6.87076 16.6559 7.42886 16.8069C8.43984 17.0814 12.502 17.0814 12.502 17.0814C12.502 17.0814 16.5643 17.0814 17.5752 16.8069C18.1333 16.6559 18.5725 16.2122 18.7235 15.6495C18.9934 14.6294 18.9934 12.5022 18.9934 12.5022C18.9934 12.5022 18.9934 10.3751 18.7235 9.35494ZM11.1709 14.4327V10.5718L14.5652 12.5022L11.1709 14.4327Z" fill="white"/>
</g>
</g>
</svg>
